<?xml version="1.0" standalone="no"?>
<!DOCTYPE svg PUBLIC "-//W3C//DTD SVG 20010904//EN"
 "http://www.w3.org/TR/2001/REC-SVG-20010904/DTD/svg10.dtd">
<svg version="1.0" xmlns="http://www.w3.org/2000/svg"
 width="96.000000pt" height="96.000000pt" viewBox="0 0 96.000000 96.000000"
 preserveAspectRatio="xMidYMid meet">

<g transform="translate(0.000000,96.000000) scale(0.100000,-0.100000)"
fill="#6750A4" stroke="none">
<path d="M160 800 c-19 -19 -20 -33 -20 -323 0 -282 1 -305 18 -320 16 -15 54
-17 324 -17 283 0 306 1 321 18 15 16 17 54 17 320 0 289 -1 303 -20 322 -19
19 -33 20 -320 20 -287 0 -301 -1 -320 -20z m360 -130 l0 -70 70 0 70 0 0 -40
0 -40 -70 0 -69 0 -3 -147 -3 -148 -35 0 -35 0 -3 148 -3 147 -69 0 -70 0 0
40 0 40 70 0 70 0 0 70 0 70 40 0 40 0 0 -70z"/>
</g>
</svg>
